<?xml version="1.0" standalone="no"?>
<!DOCTYPE svg PUBLIC "-//W3C//DTD SVG 20010904//EN"
 "http://www.w3.org/TR/2001/REC-SVG-20010904/DTD/svg10.dtd">
<svg version="1.0" xmlns="http://www.w3.org/2000/svg"
 width="512.000000pt" height="512.000000pt" viewBox="0 0 512.000000 512.000000"
 preserveAspectRatio="xMidYMid meet">

<g transform="translate(0.000000,512.000000) scale(0.100000,-0.100000)"
fill="#000000" stroke="none">
<path d="M1080 4775 l0 -345 120 0 120 0 0 115 0 115 105 0 105 0 0 -115 0
-115 115 0 115 0 0 345 0 345 -115 0 -114 0 -3 -112 -3 -113 -105 0 -105 0 -3
113 -3 112 -114 0 -115 0 0 -345z"/>
<path d="M1860 5005 l0 -115 100 0 100 0 0 -230 0 -230 115 0 115 0 0 230 0
230 100 0 100 0 0 115 0 115 -315 0 -315 0 0 -115z"/>
<path d="M2590 4775 l0 -345 115 0 115 0 0 166 c0 91 3 163 8 161 4 -3 39 -55
77 -116 39 -60 73 -109 77 -108 4 1 41 54 82 117 l76 115 0 -167 0 -168 115 0
115 0 0 345 0 345 -119 0 -120 0 -65 -107 c-36 -60 -70 -114 -75 -122 -6 -10
-28 19 -81 108 l-73 121 -123 0 -124 0 0 -345z"/>
<path d="M3490 4775 l0 -345 275 0 275 0 0 115 0 115 -160 0 -160 0 0 230 0
230 -115 0 -115 0 0 -345z"/>
<path d="M750 4108 c1 -36 330 -3691 332 -3694 7 -6 1454 -405 1473 -406 17 0
1475 400 1483 407 2 2 331 3662 332 3693 0 1 -814 2 -1810 2 -995 0 -1810 -1
-1810 -2z m2950 -760 c0 -7 -9 -105 -20 -218 -11 -113 -20 -211 -20 -217 0
-10 -181 -13 -870 -13 l-871 0 6 -47 c9 -77 35 -366 35 -390 l0 -23 831 0 830
0 -6 -42 c-3 -24 -30 -324 -60 -668 -30 -344 -58 -640 -62 -659 l-8 -34 -463
-128 -463 -128 -447 124 c-246 69 -456 129 -468 134 -19 8 -22 28 -48 327 -15
176 -30 336 -33 357 l-6 37 232 0 c127 0 231 -1 232 -2 1 -2 8 -84 17 -182
l17 -179 235 -64 c129 -35 246 -64 260 -64 26 -2 489 119 503 131 6 6 57 503
57 563 0 16 -44 17 -785 17 -432 0 -785 4 -785 9 0 4 -27 304 -60 666 -33 362
-60 668 -60 681 l0 24 1140 0 c905 0 1140 -3 1140 -12z"/>
</g>
</svg>
