<?xml version="1.0" standalone="no"?>
<!DOCTYPE svg PUBLIC "-//W3C//DTD SVG 20010904//EN"
 "http://www.w3.org/TR/2001/REC-SVG-20010904/DTD/svg10.dtd">
<svg version="1.0" xmlns="http://www.w3.org/2000/svg"
 width="662.000000pt" height="750.000000pt" viewBox="0 0 662.000000 750.000000"
 preserveAspectRatio="xMidYMid meet">

<g transform="translate(0.000000,750.000000) scale(0.100000,-0.100000)"
fill="#000000" stroke="none">
<path d="M1240 6156 c0 -13 16 -192 35 -397 19 -206 35 -382 35 -391 0 -17 29
-18 470 -18 l470 0 0 -1405 c0 -1235 -2 -1405 -15 -1405 -24 0 -430 62 -434
66 -4 3 -59 589 -61 637 0 16 -27 17 -420 17 l-420 0 6 -42 c3 -24 29 -314 58
-646 30 -332 57 -606 60 -609 5 -5 2036 -412 2059 -413 4 0 7 1042 7 2315 l0
2315 -925 0 -925 0 0 -24z"/>
<path d="M3540 4930 l0 -1250 559 0 c308 0 562 -4 565 -9 6 -10 -90 -1061 -98
-1068 -3 -3 -233 -47 -510 -97 -278 -51 -508 -95 -511 -98 -3 -3 -4 -196 -3
-430 l3 -425 894 204 c492 111 896 205 899 207 3 4 231 2477 232 2523 0 10
-126 13 -582 15 l-583 3 -3 423 -2 422 620 0 c488 0 621 3 625 13 2 6 18 176
35 377 17 201 33 382 36 403 l6 37 -1091 0 -1091 0 0 -1250z"/>
</g>
</svg>
